<svg xmlns="http://www.w3.org/2000/svg" xmlns:xlink="http://www.w3.org/1999/xlink" width="128" height="105" version="1.1" viewBox="0 0 128 105"><g id="Page-1" fill="none" fill-rule="evenodd" stroke="none" stroke-width="1"><g id="Artboard" fill="#000" transform="translate(-20.000000, -23.000000)"><polygon id="Rectangle" points="43.273 116.333 43.273 69.667 20 69.667 20 58 31.636 58 31.636 46.333 43.273 46.333 43.273 34.667 54.909 34.667 54.909 23 113.091 23 113.091 34.667 124.727 34.667 124.727 46.333 136.364 46.333 136.364 58 148 58 148 69.667 136.364 69.667 124.727 69.667 124.727 116.333 113.091 116.333 113.091 58 54.909 58 54.909 116.333 66.545 116.333 66.545 81.333 89.818 81.333 89.818 116.333 124.727 116.333 124.727 128 43.273 128"/></g></g></svg>