<svg width="16" height="16" viewBox="0 0 16 16" fill="none" xmlns="http://www.w3.org/2000/svg">
<path d="M8 7L8.99213 14.118C9.06673 14.5863 8.60141 15 8 15C7.39859 15 6.93327 14.5863 7.00787 14.118L8 7Z" fill="black"/>
<path fill-rule="evenodd" clip-rule="evenodd" d="M9.8374 11.171L11.2213 11.6323L7.99995 4.72941L4.77863 11.6323L6.16251 11.171L7.99995 13.3759L9.8374 11.171ZM10.5 13.5L12.7944 14.2648C13.6273 14.5424 14.3881 13.6888 14.0168 12.8932L8.90614 1.94181C8.54704 1.17233 7.45286 1.17233 7.09377 1.94182L1.98311 12.8932C1.61184 13.6888 2.37263 14.5424 3.20552 14.2648L5.49995 13.5L7.23173 15.5781C7.63153 16.0579 8.36838 16.0579 8.76817 15.5781L10.5 13.5Z" fill="black"/>
</svg>
