<svg width="16" height="16" viewBox="0 0 16 16" fill="none" xmlns="http://www.w3.org/2000/svg">
<g clip-path="url(#clip0)">
<path fill-rule="evenodd" clip-rule="evenodd" d="M11.9 14H13C14.6569 14 16 12.6569 16 11V3C16 1.34315 14.6569 0 13 0H9.00001C8.69737 0 8.40519 0.0448133 8.12976 0.128166C9.29525 0.397353 10.3048 1.074 11.0004 2H13C13.5523 2 14 2.44772 14 3V11C14 11.5523 13.5523 12 13 12H12V13C12 13.3425 11.9656 13.6769 11.9 14ZM7 2H3C1.34315 2 0 3.34315 0 5V13C0 14.6569 1.34315 16 3 16H7C8.65685 16 10 14.6569 10 13V5C10 3.34315 8.65685 2 7 2ZM2 5C2 4.44772 2.44772 4 3 4H7C7.55228 4 8 4.44772 8 5V13C8 13.5523 7.55228 14 7 14H3C2.44772 14 2 13.5523 2 13V5Z" fill="black"/>
</g>
<defs>
<clipPath id="clip0">
<rect width="16" height="16" fill="white"/>
</clipPath>
</defs>
</svg>
