<svg width="16" height="16" viewBox="0 0 16 16" fill="none" xmlns="http://www.w3.org/2000/svg">
<path fill-rule="evenodd" clip-rule="evenodd" d="M11 4H5C4.44772 4 4 4.44772 4 5V11C4 11.5523 4.44772 12 5 12H11C11.5523 12 12 11.5523 12 11V5C12 4.44772 11.5523 4 11 4ZM5 2C3.34315 2 2 3.34315 2 5V11C2 12.6569 3.34315 14 5 14H11C12.6569 14 14 12.6569 14 11V5C14 3.34315 12.6569 2 11 2H5Z" fill="black"/>
<path fill-rule="evenodd" clip-rule="evenodd" d="M7 6C6.44772 6 6 6.44772 6 7V9C6 9.55228 6.44772 10 7 10H9C9.55228 10 10 9.55228 10 9V7C10 6.44772 9.55228 6 9 6H7Z" fill="black"/>
<path d="M5 1.5C5 1.22386 5.22386 1 5.5 1H6.5C6.77614 1 7 1.22386 7 1.5V3.5C7 3.77614 6.77614 4 6.5 4H5.5C5.22386 4 5 3.77614 5 3.5V1.5Z" fill="black"/>
<path d="M9 1.5C9 1.22386 9.22386 1 9.5 1H10.5C10.7761 1 11 1.22386 11 1.5V3.5C11 3.77614 10.7761 4 10.5 4H9.5C9.22386 4 9 3.77614 9 3.5V1.5Z" fill="black"/>
<path d="M5 12.5C5 12.2239 5.22386 12 5.5 12H6.5C6.77614 12 7 12.2239 7 12.5V14.5C7 14.7761 6.77614 15 6.5 15H5.5C5.22386 15 5 14.7761 5 14.5V12.5Z" fill="black"/>
<path d="M9 12.5C9 12.2239 9.22386 12 9.5 12H10.5C10.7761 12 11 12.2239 11 12.5V14.5C11 14.7761 10.7761 15 10.5 15H9.5C9.22386 15 9 14.7761 9 14.5V12.5Z" fill="black"/>
<path d="M14.5 5C14.7761 5 15 5.22386 15 5.5L15 6.5C15 6.77614 14.7761 7 14.5 7L12.5 7C12.2239 7 12 6.77614 12 6.5L12 5.5C12 5.22386 12.2239 5 12.5 5L14.5 5Z" fill="black"/>
<path d="M14.5 9C14.7761 9 15 9.22386 15 9.5L15 10.5C15 10.7761 14.7761 11 14.5 11L12.5 11C12.2239 11 12 10.7761 12 10.5L12 9.5C12 9.22386 12.2239 9 12.5 9L14.5 9Z" fill="black"/>
<path d="M3.5 5C3.77614 5 4 5.22386 4 5.5L4 6.5C4 6.77614 3.77614 7 3.5 7L1.5 7C1.22386 7 1 6.77614 1 6.5L1 5.5C1 5.22386 1.22386 5 1.5 5L3.5 5Z" fill="black"/>
<path d="M3.5 9C3.77614 9 4 9.22386 4 9.5L4 10.5C4 10.7761 3.77614 11 3.5 11L1.5 11C1.22386 11 1 10.7761 1 10.5L1 9.5C1 9.22386 1.22386 9 1.5 9L3.5 9Z" fill="black"/>
</svg>
