<svg width="16" height="16" viewBox="0 0 16 16" fill="none" xmlns="http://www.w3.org/2000/svg">
<g clip-path="url(#clip0)">
<path fill-rule="evenodd" clip-rule="evenodd" d="M2 4L2 12C2 13.1046 2.89543 14 4 14L12 14C13.1046 14 14 13.1046 14 12L14 4C14 2.89543 13.1046 2 12 2L4 2C2.89543 2 2 2.89543 2 4ZM-1.74846e-07 12C-7.8281e-08 14.2091 1.79086 16 4 16L12 16C14.2091 16 16 14.2091 16 12L16 4C16 1.79086 14.2091 -6.21101e-07 12 -5.24537e-07L4 -1.74846e-07C1.79086 -7.8281e-08 -6.21101e-07 1.79086 -5.24537e-07 4L-1.74846e-07 12Z" fill="black"/>
<path fill-rule="evenodd" clip-rule="evenodd" d="M6 5C6 4.44772 5.55228 4 5 4C4.44771 4 4 4.44772 4 5C4 5.55228 4.44772 6 5 6C5.55228 6 6 5.55228 6 5ZM8 7C8.55228 7 9 7.44772 9 8C9 8.55228 8.55228 9 8 9C7.44772 9 7 8.55228 7 8C7 7.44772 7.44772 7 8 7ZM11 10C11.5523 10 12 10.4477 12 11C12 11.5523 11.5523 12 11 12C10.4477 12 10 11.5523 10 11C10 10.4477 10.4477 10 11 10Z" fill="black"/>
</g>
<defs>
<clipPath id="clip0">
<rect width="16" height="16" fill="white"/>
</clipPath>
</defs>
</svg>
