<svg width="16" height="16" viewBox="0 0 16 16" fill="none" xmlns="http://www.w3.org/2000/svg">
<path fill-rule="evenodd" clip-rule="evenodd" d="M4 2H12V4L14 6V2C14 0.895431 13.1046 0 12 0H4C2.89543 0 2 0.895431 2 2V14C2 15.1046 2.89543 16 4 16H12C13.1046 16 14 15.1046 14 14V10L12 12V14H4L4 2Z" fill="black"/>
<path d="M4 7H12V9H4V7Z" fill="black"/>
<path fill-rule="evenodd" clip-rule="evenodd" d="M10.9498 4.45711C10.5593 4.06658 9.92609 4.06658 9.53557 4.45711C9.14504 4.84763 9.14504 5.4808 9.53557 5.87132L11.6569 7.99264L9.53557 10.114C9.14504 10.5045 9.14504 11.1377 9.53557 11.5282C9.92609 11.9187 10.5593 11.9187 10.9498 11.5282L13.7782 8.69975C14.1687 8.30922 14.1687 7.67606 13.7782 7.28553L10.9498 4.45711Z" fill="black"/>
</svg>
