<svg width="16" height="16" viewBox="0 0 16 16" fill="none" xmlns="http://www.w3.org/2000/svg">
<path fill-rule="evenodd" clip-rule="evenodd" d="M6 12H3C2.44772 12 2 11.5523 2 11V3C2 2.44772 2.44772 2 3 2H13C13.5523 2 14 2.44772 14 3V11C14 11.5523 13.5523 12 13 12H10L8 14L6 12ZM10.8284 14H13C14.6569 14 16 12.6569 16 11V3C16 1.34315 14.6569 0 13 0H3C1.34315 0 0 1.34315 0 3V11C0 12.6569 1.34315 14 3 14H5.17157L6.58579 15.4142C7.36684 16.1953 8.63316 16.1953 9.41421 15.4142L10.8284 14ZM7 9.5C7 9.22386 7.22386 9 7.5 9H8.5C8.77614 9 9 9.22386 9 9.5V10.5C9 10.7761 8.77614 11 8.5 11H7.5C7.22386 11 7 10.7761 7 10.5V9.5ZM7.5 3C7.22386 3 7 3.22386 7 3.5V7.5C7 7.77614 7.22386 8 7.5 8H8.5C8.77614 8 9 7.77614 9 7.5V3.5C9 3.22386 8.77614 3 8.5 3H7.5Z" fill="black"/>
</svg>
