<svg width="16" height="16" viewBox="0 0 16 16" fill="none" xmlns="http://www.w3.org/2000/svg">
<path d="M11.2111 7.10555C11.9482 7.47408 11.9482 8.52588 11.2111 8.89441L6.4472 11.2764C5.7823 11.6088 4.99998 11.1253 4.99998 10.382V5.61802C4.99998 4.87464 5.7823 4.39114 6.4472 4.72359L11.2111 7.10555Z" fill="black"/>
<path fill-rule="evenodd" clip-rule="evenodd" d="M12 2H4C2.89543 2 2 2.89543 2 4V12C2 13.1046 2.89543 14 4 14H12C13.1046 14 14 13.1046 14 12V4C14 2.89543 13.1046 2 12 2ZM4 0C1.79086 0 0 1.79086 0 4V12C0 14.2091 1.79086 16 4 16H12C14.2091 16 16 14.2091 16 12V4C16 1.79086 14.2091 0 12 0H4Z" fill="black"/>
</svg>
