<svg width="16" height="16" viewBox="0 0 16 16" fill="none" xmlns="http://www.w3.org/2000/svg">
<path fill-rule="evenodd" clip-rule="evenodd" d="M4 2L12 2C13.1046 2 14 2.89543 14 4V7H7.41421L8.53553 5.87868C8.92606 5.48816 8.92605 4.85499 8.53553 4.46447C8.14501 4.07395 7.51184 4.07394 7.12132 4.46447L4.29289 7.29289C4.19701 7.38877 4.12468 7.49927 4.07588 7.61722C4.02698 7.73512 4 7.86441 4 8C4 8.13508 4.02678 8.2639 4.07532 8.38144C4.12413 8.49989 4.19665 8.61087 4.29289 8.70711L7.12132 11.5355C7.51185 11.9261 8.14501 11.9261 8.53553 11.5355C8.92606 11.145 8.92606 10.5119 8.53553 10.1213L7.41421 9L14 9L14 12C14 13.1046 13.1046 14 12 14L4 14C2.89543 14 2 13.1046 2 12L2 4C2 2.89543 2.89543 2 4 2ZM16 8V4C16 1.79086 14.2091 0 12 0L4 0C1.79086 0 0 1.79086 0 4L0 12C0 14.2091 1.79086 16 4 16L12 16C14.2091 16 16 14.2091 16 12L16 8Z" fill="black"/>
</svg>
