<svg width="16" height="16" viewBox="0 0 16 16" fill="none" xmlns="http://www.w3.org/2000/svg">
<path fill-rule="evenodd" clip-rule="evenodd" d="M4 2L12 2C13.1046 2 14 2.89543 14 4L14 12C14 13.1046 13.1046 14 12 14L4 14C2.89543 14 2 13.1046 2 12V9H8.58579L7.46447 10.1213C7.07394 10.5118 7.07395 11.145 7.46447 11.5355C7.85499 11.9261 8.48816 11.9261 8.87868 11.5355L11.7071 8.70711C11.803 8.61123 11.8753 8.50073 11.9241 8.38278C11.973 8.26488 12 8.13559 12 8C12 7.86492 11.9732 7.7361 11.9247 7.61856C11.8759 7.50011 11.8033 7.38913 11.7071 7.29289L8.87868 4.46446C8.48815 4.07394 7.85499 4.07394 7.46447 4.46446C7.07394 4.85499 7.07394 5.48815 7.46447 5.87868L8.58579 7L2 7L2 4C2 2.89543 2.89543 2 4 2ZM0 8V12C0 14.2091 1.79086 16 4 16L12 16C14.2091 16 16 14.2091 16 12L16 4C16 1.79086 14.2091 0 12 0L4 0C1.79086 0 0 1.79086 0 4V8Z" fill="black"/>
</svg>
