<svg width="16" height="16" viewBox="0 0 16 16" fill="none" xmlns="http://www.w3.org/2000/svg">
<path fill-rule="evenodd" clip-rule="evenodd" d="M14 2H2V4H5.76389C6.31321 3.38625 7.1115 3 8 3C8.8885 3 9.68679 3.38625 10.2361 4H14V2ZM9 6C9 5.44772 8.55228 5 8 5C7.44772 5 7 5.44772 7 6V13C7 13.5523 7.44772 14 8 14H13C13.5523 14 14 13.5523 14 13V9.8673C14 9.36965 13.6341 8.94772 13.1414 8.87735L9.85858 8.40837C9.36593 8.33799 9 7.91607 9 7.41842V6ZM5 6H2C0.895431 6 0 5.10457 0 4V2C0 0.89543 0.895431 0 2 0H14C15.1046 0 16 0.895431 16 2V4C16 5.10457 15.1046 6 14 6H11V6.55112L13.4243 6.89745C14.9022 7.10858 16 8.37435 16 9.8673V13C16 14.6569 14.6569 16 13 16H8C6.34315 16 5 14.6569 5 13V6Z" fill="black"/>
</svg>
