<svg width="128px" height="105px" viewBox="0 0 128 105" version="1.1" xmlns="http://www.w3.org/2000/svg" xmlns:xlink="http://www.w3.org/1999/xlink">
    <g id="Page-1" stroke="none" stroke-width="1" fill="none" fill-rule="evenodd">
        <g id="Artboard" transform="translate(-20.000000, -23.000000)" fill="#000000">
            <polygon id="Rectangle" points="43.2727273 116.333333 43.2727273 69.6666667 20 69.6666667 20 58 31.6363636 58 31.6363636 46.3333333 43.2727273 46.3333333 43.2727273 34.6666667 54.9090909 34.6666667 54.9090909 23 113.090909 23 113.090909 34.6666667 124.727273 34.6666667 124.727273 46.3333333 136.363636 46.3333333 136.363636 58 148 58 148 69.6666667 136.363636 69.6666667 124.727273 69.6666667 124.727273 116.333333 113.090909 116.333333 113.090909 58 54.9090909 58 54.9090909 116.333333 66.5454545 116.333333 66.5454545 81.3333333 89.8181818 81.3333333 89.8181818 116.333333 124.727273 116.333333 124.727273 128 43.2727273 128"></polygon>
        </g>
    </g>
</svg>