<svg width="48" height="40" viewBox="0 0 48 40" fill="none" xmlns="http://www.w3.org/2000/svg">
<path fill-rule="evenodd" clip-rule="evenodd" d="m1.874999,31.874983l0,6l6,0c0,-3.31 -2.69,-6 -6,-6zm0,-8l0,4c5.52,0 10,4.48 10,10l4,0c0,-7.73 -6.27,-14 -14,-14zm36,-14l-28,0l0,3.27c7.92,2.56 14.17,8.81 16.73,16.73l11.27,0l0,-20zm-36,6l0,4c9.94,0 18,8.06 18,18l4,0c0,-12.15 -9.85,-22 -22,-22zm40,-14l-36,0c-2.21,0 -4,1.79 -4,4l0,6l4,0l0,-6l36,0l0,28l-14,0l0,4l14,0c2.21,0 4,-1.79 4,-4l0,-28c0,-2.21 -1.79,-4 -4,-4z" fill="black"/>
</svg>
