<svg xmlns="http://www.w3.org/2000/svg" width="16" height="16" fill="none" viewBox="0 0 16 16"><path fill="#000" fill-rule="evenodd" d="M8 14C4.68629 14 2 11.3137 2 8C2 4.68629 4.68629 2 8 2C11.3137 2 14 4.68629 14 8C14 11.3137 11.3137 14 8 14ZM0 8C0 3.58172 3.58172 0 8 0C12.4183 0 16 3.58172 16 8C16 12.4183 12.4183 16 8 16C3.58172 16 0 12.4183 0 8ZM10.8284 5.17157C10.4379 4.78105 9.80472 4.78105 9.4142 5.17157L7.99998 6.58579L6.58577 5.17157C6.19524 4.78105 5.56208 4.78105 5.17156 5.17157C4.78103 5.5621 4.78103 6.19526 5.17156 6.58579L6.58577 8L5.17156 9.41422C4.78103 9.80474 4.78103 10.4379 5.17156 10.8284C5.56208 11.219 6.19524 11.219 6.58577 10.8284L7.99998 9.41422L9.4142 10.8284C9.80472 11.219 10.4379 11.219 10.8284 10.8284C11.2189 10.4379 11.2189 9.80474 10.8284 9.41422L9.4142 8L10.8284 6.58579C11.2189 6.19526 11.2189 5.5621 10.8284 5.17157Z" clip-rule="evenodd"/></svg>