<svg xmlns="http://www.w3.org/2000/svg" width="16" height="16" fill="none" viewBox="0 0 16 16"><path fill="#000" fill-rule="evenodd" d="M0 8C0 3.58172 3.58172 0 8 0C12.4183 0 16 3.58172 16 8C16 12.4183 12.4183 16 8 16C3.58172 16 0 12.4183 0 8ZM10.8284 9.41421C11.219 9.80474 11.2189 10.4379 10.8284 10.8284C10.4379 11.2189 9.80474 11.219 9.41421 10.8284L7.99999 9.41421L6.58578 10.8284C6.19526 11.2189 5.5621 11.219 5.17157 10.8284C4.78104 10.4379 4.78105 9.80473 5.17157 9.41421L6.58578 8L5.17157 6.58579C4.78105 6.19527 4.78105 5.56209 5.17157 5.17157C5.56209 4.78105 6.19526 4.78105 6.58578 5.17157L7.99999 6.58579L9.41421 5.17157C9.80473 4.78105 10.4379 4.78104 10.8284 5.17157C11.219 5.5621 11.2189 6.19527 10.8284 6.58579L9.41421 8L10.8284 9.41421Z" clip-rule="evenodd"/></svg>
