<svg xmlns="http://www.w3.org/2000/svg" width="16" height="16" fill="none" viewBox="0 0 16 16"><path fill="#000" fill-rule="evenodd" d="M12.9282 5.1547L7.99998 2.3094L3.07178 5.1547L3.07178 10.8453L7.99998 13.6906L12.9282 10.8453V5.1547ZM8.99998 0.577352C8.38118 0.220086 7.61878 0.220086 6.99998 0.577352L2.07178 3.42265C1.45298 3.77992 1.07178 4.44017 1.07178 5.1547V10.8453C1.07178 11.5598 1.45298 12.2201 2.07178 12.5774L6.99998 15.4227C7.61878 15.7799 8.38118 15.7799 8.99998 15.4227L13.9282 12.5774C14.547 12.2201 14.9282 11.5598 14.9282 10.8453V5.1547C14.9282 4.44017 14.547 3.77992 13.9282 3.42265L8.99998 0.577352Z" clip-rule="evenodd"/><path fill="#000" fill-rule="evenodd" d="M8.99998 8.07317L13.5054 5.43411L12.4946 3.70837L8.01359 6.3331L3.78264 3.7204L2.73181 5.42209L6.99998 8.05777V14H8.99998V8.07317Z" clip-rule="evenodd"/></svg>