<svg xmlns="http://www.w3.org/2000/svg" width="16" height="16" fill="none" viewBox="0 0 16 16"><path fill="#000" d="M4 5C4 4.44772 4.44772 4 5 4H11C11.5523 4 12 4.44772 12 5V11C12 11.5523 11.5523 12 11 12H5C4.44772 12 4 11.5523 4 11V5Z"/><path fill="#000" fill-rule="evenodd" d="M1 0C0.447715 0 0 0.447715 0 1V3C0 3.55228 0.447715 4 1 4C1.55228 4 2 3.55228 2 3V2H3C3.55228 2 4 1.55228 4 1C4 0.447715 3.55228 0 3 0H1Z" clip-rule="evenodd"/><path fill="#000" fill-rule="evenodd" d="M15 16C15.5523 16 16 15.5523 16 15V13C16 12.4477 15.5523 12 15 12C14.4477 12 14 12.4477 14 13V14H13C12.4477 14 12 14.4477 12 15C12 15.5523 12.4477 16 13 16H15Z" clip-rule="evenodd"/><path fill="#000" fill-rule="evenodd" d="M16 1C16 0.447715 15.5523 -1.95703e-08 15 -4.37114e-08L13 -1.31134e-07C12.4477 -1.55275e-07 12 0.447715 12 1C12 1.55228 12.4477 2 13 2L14 2L14 3C14 3.55228 14.4477 4 15 4C15.5523 4 16 3.55228 16 3L16 1Z" clip-rule="evenodd"/><path fill="#000" fill-rule="evenodd" d="M-1.31134e-07 15C-1.55275e-07 15.5523 0.447715 16 1 16L3 16C3.55228 16 4 15.5523 4 15C4 14.4477 3.55228 14 3 14L2 14L2 13C2 12.4477 1.55229 12 1 12C0.447716 12 2.18848e-07 12.4477 1.94707e-07 13L-1.31134e-07 15Z" clip-rule="evenodd"/></svg>
