<svg width="16" height="16" viewBox="0 0 16 16" fill="none" xmlns="http://www.w3.org/2000/svg">
<g clip-path="url(#clip0)">
<path fill-rule="evenodd" clip-rule="evenodd" d="M3.00001 16C1.34317 16 5.465e-06 14.6569 5.465e-06 13V8.36929C-0.12456 7.75149 0.0328445 7.07149 0.562249 6.54752C0.562253 6.54751 0.562244 6.54752 0.562249 6.54752L5.88967 1.27475C7.0587 0.117721 8.94134 0.117737 10.1104 1.27474L15.4378 6.5475C15.4378 6.54751 15.4378 6.5475 15.4378 6.5475C15.9672 7.07152 16.1246 7.7516 16 8.36944V13C16 14.6568 14.6569 16 13 16H3.00001ZM14.0309 7.96901L8.70347 2.69624C8.31379 2.31056 7.68625 2.31056 7.29658 2.69624L1.96915 7.96901C1.95765 7.98039 1.9657 8 1.98191 8C1.99192 8 2.00001 8.00811 2.00001 8.01812V13C2.00001 13.5523 2.44773 14 3.00001 14H6.00001V10C6.00001 8.89543 6.89542 8 8.00001 8C9.10459 8 10 8.89543 10 10V14H13C13.5523 14 14 13.5523 14 13V8.01812C14 8.00811 14.0081 8 14.0181 8C14.0343 8 14.0424 7.98039 14.0309 7.96901ZM1.98191 6C2.39776 6 2.76466 6.11839 3.06633 6.31569C2.75348 6.11593 2.38161 6 1.98191 6ZM14.0181 6C13.6152 6 13.2396 6.11817 12.9243 6.32187C13.2278 6.12086 13.598 6 14.0181 6Z" fill="black"/>
</g>
<defs>
<clipPath id="clip0">
<rect width="16" height="16" fill="white"/>
</clipPath>
</defs>
</svg>
