<svg width="16" height="10" viewBox="0 0 16 10" fill="none" xmlns="http://www.w3.org/2000/svg">
<path fill-rule="evenodd" clip-rule="evenodd" d="m0.5,0.875c-0.27614,0 -0.5,0.22386 -0.5,0.5l0,1c0,0.27614 0.22386,0.5 0.5,0.5l2,0c0.27614,0 0.5,-0.22386 0.5,-0.5l0,-1c0,-0.27614 -0.22386,-0.5 -0.5,-0.5l-2,0zm-0.5,3.5c0,-0.27614 0.22386,-0.5 0.5,-0.5l2,0c0.27614,0 0.5,0.22386 0.5,0.5l0,1c0,0.27614 -0.22386,0.5 -0.5,0.5l-2,0c-0.27614,0 -0.5,-0.22386 -0.5,-0.5l0,-1zm0.5,2.5c-0.27614,0 -0.5,0.2239 -0.5,0.5l0,1c0,0.2761 0.22386,0.5 0.5,0.5l2,0c0.27614,0 0.5,-0.2239 0.5,-0.5l0,-1c0,-0.2761 -0.22386,-0.5 -0.5,-0.5l-2,0zm3.5,0.5c0,-0.2761 0.22386,-0.5 0.5,-0.5l7,0c0.2761,0 0.5,0.2239 0.5,0.5l0,1c0,0.2761 -0.2239,0.5 -0.5,0.5l-7,0c-0.27614,0 -0.5,-0.2239 -0.5,-0.5l0,-1zm9,0c0,-0.2761 0.2239,-0.5 0.5,-0.5l2,0c0.2761,0 0.5,0.2239 0.5,0.5l0,1c0,0.2761 -0.2239,0.5 -0.5,0.5l-2,0c-0.2761,0 -0.5,-0.2239 -0.5,-0.5l0,-1zm-8.5,-3.5c-0.27614,0 -0.5,0.22386 -0.5,0.5l0,1c0,0.27614 0.22386,0.5 0.5,0.5l1,0c0.27614,0 0.5,-0.22386 0.5,-0.5l0,-1c0,-0.27614 -0.22386,-0.5 -0.5,-0.5l-1,0zm2.5,0.5c0,-0.27614 0.22386,-0.5 0.5,-0.5l1,0c0.27614,0 0.5,0.22386 0.5,0.5l0,1c0,0.27614 -0.22386,0.5 -0.5,0.5l-1,0c-0.27614,0 -0.5,-0.22386 -0.5,-0.5l0,-1zm3.5,-0.5c-0.2761,0 -0.5,0.22386 -0.5,0.5l0,1c0,0.27614 0.2239,0.5 0.5,0.5l1,0c0.2761,0 0.5,-0.22386 0.5,-0.5l0,-1c0,-0.27614 -0.2239,-0.5 -0.5,-0.5l-1,0zm2.5,0.5c0,-0.27614 0.2239,-0.5 0.5,-0.5l2,0c0.2761,0 0.5,0.22386 0.5,0.5l0,1c0,0.27614 -0.2239,0.5 -0.5,0.5l-2,0c-0.2761,0 -0.5,-0.22386 -0.5,-0.5l0,-1zm0,-3c0,-0.27614 0.2239,-0.5 0.5,-0.5l2,0c0.2761,0 0.5,0.22386 0.5,0.5l0,1c0,0.27614 -0.2239,0.5 -0.5,0.5l-2,0c-0.2761,0 -0.5,-0.22386 -0.5,-0.5l0,-1zm-2.5,-0.5c-0.2761,0 -0.5,0.22386 -0.5,0.5l0,1c0,0.27614 0.2239,0.5 0.5,0.5l1,0c0.2761,0 0.5,-0.22386 0.5,-0.5l0,-1c0,-0.27614 -0.2239,-0.5 -0.5,-0.5l-1,0zm-6.5,0.5c0,-0.27614 0.22386,-0.5 0.5,-0.5l1,0c0.27614,0 0.5,0.22386 0.5,0.5l0,1c0,0.27614 -0.22386,0.5 -0.5,0.5l-1,0c-0.27614,0 -0.5,-0.22386 -0.5,-0.5l0,-1zm3.5,-0.5c-0.27614,0 -0.5,0.22386 -0.5,0.5l0,1c0,0.27614 0.22386,0.5 0.5,0.5l1,0c0.27614,0 0.5,-0.22386 0.5,-0.5l0,-1c0,-0.27614 -0.22386,-0.5 -0.5,-0.5l-1,0z" fill="black"/>
</svg>
