<svg xmlns="http://www.w3.org/2000/svg" width="16" height="16" fill="none" viewBox="0 0 16 16"><g clip-path="url(#clip0)"><path fill="#000" fill-rule="evenodd" d="M12.2426 12.2426C12.6331 11.8521 12.6331 11.2189 12.2426 10.8284L9.41422 8.00002L12.2426 5.17159C12.6332 4.78105 12.6332 4.1479 12.2426 3.75737C11.8521 3.36684 11.219 3.36684 10.8284 3.75737L8 6.5858L5.17157 3.75737C4.78104 3.36684 4.14789 3.36684 3.75735 3.75737C3.36682 4.14787 3.36682 4.78105 3.75735 5.17159L6.58578 8.00002L3.75739 10.8284C3.36685 11.219 3.36685 11.8521 3.75739 12.2426C4.14789 12.6332 4.78107 12.6332 5.17157 12.2426L8 9.41421L10.8284 12.2426C11.2189 12.6332 11.8521 12.6332 12.2426 12.2426Z" clip-rule="evenodd"/></g><defs><clipPath id="clip0"><rect width="16" height="16" fill="#fff"/></clipPath></defs></svg>