<svg xmlns="http://www.w3.org/2000/svg" width="16" height="16" fill="none" viewBox="0 0 16 16"><path fill="#000" fill-rule="evenodd" d="M1 2L1.86732 14.1425C1.94208 15.1891 2.81296 16 3.86224 16H12.1378C13.187 16 14.0579 15.1891 14.1327 14.1425L15 2H1ZM3.14795 4L3.86224 14L12.1378 14L12.852 4H3.14795Z" clip-rule="evenodd"/><path fill="#000" fill-rule="evenodd" d="M7 7C7 6.44772 6.55228 6 6 6C5.44772 6 5 6.44772 5 7V11C5 11.5523 5.44772 12 6 12C6.55228 12 7 11.5523 7 11V7Z" clip-rule="evenodd"/><path fill="#000" fill-rule="evenodd" d="M11 7C11 6.44772 10.5523 6 10 6C9.44772 6 9 6.44772 9 7V11C9 11.5523 9.44772 12 10 12C10.5523 12 11 11.5523 11 11V7Z" clip-rule="evenodd"/><path fill="#000" fill-rule="evenodd" d="M1 2C0.447715 2 0 2.44772 0 3C0 3.55228 0.447715 4 1 4H15C15.5523 4 16 3.55228 16 3C16 2.44772 15.5523 2 15 2H1Z" clip-rule="evenodd"/><path fill="#000" fill-rule="evenodd" d="M5 0C4.44772 0 4 0.447715 4 1V3C4 3.55228 4.44772 4 5 4H11C11.5523 4 12 3.55228 12 3V1C12 0.447715 11.5523 0 11 0H5Z" clip-rule="evenodd"/></svg>