<svg xmlns="http://www.w3.org/2000/svg" xmlns:xlink="http://www.w3.org/1999/xlink" width="16" height="14" version="1.1" viewBox="0 0 16 14"><g id="Discourse" fill="none" fill-rule="evenodd" stroke="none" stroke-width="1"><g id="Artboard" fill="#000" transform="translate(-199.000000, -113.000000)"><g id="tv" transform="translate(199.000000, 113.000000)"><path id="Shape" d="M14,2 L2,2 L2,10 L14,10 L14,2 Z M2,0 C0.895431,0 0,0.89543 0,2 L0,10 C0,11.1046 0.895431,12 2,12 L14,12 C15.1046,12 16,11.1046 16,10 L16,2 C16,0.89543 15.1046,0 14,0 L2,0 Z"/><path id="Path" fill-rule="nonzero" d="M4,13 C4,12.4477 4.44772,12 5,12 L11,12 C11.5523,12 12,12.4477 12,13 C12,13.5523 11.5523,14 11,14 L5,14 C4.44772,14 4,13.5523 4,13 Z"/></g></g></g></svg>
