<?xml version="1.0" encoding="UTF-8"?>
<svg width="16px" height="14px" viewBox="0 0 16 14" version="1.1" xmlns="http://www.w3.org/2000/svg" xmlns:xlink="http://www.w3.org/1999/xlink">
    <g id="Discourse" stroke="none" stroke-width="1" fill="none" fill-rule="evenodd">
        <g id="Artboard" transform="translate(-199.000000, -113.000000)" fill="#000000">
            <g id="tv" transform="translate(199.000000, 113.000000)">
                <path d="M14,2 L2,2 L2,10 L14,10 L14,2 Z M2,0 C0.895431,0 0,0.89543 0,2 L0,10 C0,11.1046 0.895431,12 2,12 L14,12 C15.1046,12 16,11.1046 16,10 L16,2 C16,0.89543 15.1046,0 14,0 L2,0 Z" id="Shape"></path>
                <path d="M4,13 C4,12.4477 4.44772,12 5,12 L11,12 C11.5523,12 12,12.4477 12,13 C12,13.5523 11.5523,14 11,14 L5,14 C4.44772,14 4,13.5523 4,13 Z" id="Path" fill-rule="nonzero"></path>
            </g>
        </g>
    </g>
</svg>