<svg xmlns="http://www.w3.org/2000/svg" width="16" height="16" fill="none" viewBox="0 0 16 16"><path fill="#000" d="M5 4C4.44772 4 4 4.44772 4 5V6C4 6.55228 4.44772 7 5 7C5.55228 7 6 6.55228 6 6V5C6 4.44772 5.55228 4 5 4Z"/><path fill="#000" d="M10 5C10 4.44772 10.4477 4 11 4C11.5523 4 12 4.44772 12 5V6C12 6.55228 11.5523 7 11 7C10.4477 7 10 6.55228 10 6V5Z"/><path fill="#000" d="M4.30769 9C4.13776 9 4 9.13776 4 9.30769C4 11.3469 5.6531 13 7.69231 13H8.30769C10.3469 13 12 11.3469 12 9.30769C12 9.13776 11.8622 9 11.6923 9H4.30769Z"/><path fill="#000" fill-rule="evenodd" d="M0 4C0 1.79086 1.79086 0 4 0H12C14.2091 0 16 1.79086 16 4V12C16 14.2091 14.2091 16 12 16H4C1.79086 16 0 14.2091 0 12V4ZM4 2H12C13.1046 2 14 2.89543 14 4V12C14 13.1046 13.1046 14 12 14H4C2.89543 14 2 13.1046 2 12V4C2 2.89543 2.89543 2 4 2Z" clip-rule="evenodd"/></svg>
