<svg width="16" height="16" viewBox="0 0 16 16" fill="none" xmlns="http://www.w3.org/2000/svg">
<path d="M0 7C0 6.44772 0.447715 6 1 6H3C3.55228 6 4 6.44772 4 7V9C4 9.55228 3.55228 10 3 10H1C0.447715 10 0 9.55228 0 9V7Z" fill="black"/>
<path d="M3 6L6 3V13L3 10V6Z" fill="black"/>
<path d="M7.29289 12.2426C7.68342 12.6331 8.31658 12.6331 8.70711 12.2426L11.5355 9.41419L14.364 12.2426C14.7545 12.6331 15.3877 12.6331 15.7782 12.2426C16.1687 11.8521 16.1687 11.2189 15.7782 10.8284L12.9497 7.99999L15.7782 5.17156C16.1687 4.78103 16.1687 4.14787 15.7782 3.75735C15.3876 3.36681 14.7545 3.36681 14.364 3.75735L11.5355 6.58578L8.70711 3.75735C8.31658 3.36681 7.68342 3.36681 7.2929 3.75735C6.90237 4.14787 6.90237 4.78103 7.2929 5.17155L10.1213 7.99998L7.29289 10.8284C6.90237 11.2189 6.90237 11.8521 7.29289 12.2426Z" fill="black"/>
</svg>
