<svg xmlns="http://www.w3.org/2000/svg" width="16" height="16" fill="none" viewBox="0 0 16 16"><path fill="#000" d="M0 7C0 6.44772 0.447715 6 1 6H4V10H1C0.447715 10 0 9.55228 0 9V7Z"/><path fill="#000" d="M3 6L6 3V13L3 10V6Z"/><path fill="#000" d="M16 7.99999C16 12.0803 12.9453 15.4471 8.99801 15.9383C8.44996 16.0065 8 15.5523 8 15C8 14.4477 8.45108 14.0087 8.99581 13.9177C11.8356 13.4434 14 10.9744 14 7.99999C14 5.02554 11.8356 2.5566 8.99581 2.08225C8.45108 1.99126 8 1.55228 8 0.999994C8 0.447709 8.44996 -0.00656231 8.99801 0.0616403C12.9453 0.552857 16 3.9197 16 7.99999Z"/><path fill="#000" d="M12 7.99999C12 9.86747 10.7202 11.4361 8.98988 11.8766C8.45467 12.0128 8 11.5523 8 11C8 10.4477 8.47452 10.0207 8.95897 9.75552C9.57933 9.41593 10 8.75709 10 7.99999C10 7.2429 9.57933 6.58406 8.95897 6.24447C8.47452 5.97927 8 5.55228 8 4.99999C8 4.44771 8.45467 3.98717 8.98988 4.12342C10.7202 4.56394 12 6.13251 12 7.99999Z"/></svg>
